Coordinates
version=1
nRows=8
nColumns=46
inDegrees=yes

Units are S.I. units (second, meters, Newtons, ...)
Angles are in degrees.

endheader
time	pelvis_tilt	pelvis_list	pelvis_rotation	pelvis_tx	pelvis_ty	pelvis_tz	bb_angle	bb_tx	bb_ty	bb_tz	hip_flexion_r	hip_adduction_r	hip_rotation_r	knee_angle_r	knee_angle_r_beta	ankle_angle_r	subtalar_angle_r	mtp_angle_r	crank_angle_r	hip_flexion_l	hip_adduction_l	hip_rotation_l	knee_angle_l	knee_angle_l_beta	ankle_angle_l	subtalar_angle_l	mtp_angle_l	crank_angle_l	lumbar_extension	lumbar_bending	lumbar_rotation	arm_flex_r	arm_add_r	arm_rot_r	elbow_flex_r	pro_sup_r	wrist_flex_r	wrist_dev_r	arm_flex_l	arm_add_l	arm_rot_l	elbow_flex_l	pro_sup_l	wrist_flex_l	wrist_dev_l
      5.00000000	    -17.03702528	      8.61713381	     -3.95316690	      0.36345221	      1.06808071	     -0.23218682	      0.00000000	      0.50000000	      0.00000000	      0.25000000	     34.78323716	     -9.16849011	      6.37970691	     32.60800983	      0.56911713	     -1.52814461	     -3.24014637	      0.00000000	      0.00000000	     58.65475877	     -4.71275845	     -4.22575949	    110.57785226	      1.92994760	      4.70472938	     -3.20575415	      0.00000000	      0.00000000	    -54.45873243	     -1.74976947	     -6.96678324	     78.60068448	    -26.89681699	     81.87223294	     62.18624204	     58.13152718	      0.00000000	      0.00000000	     50.11014796	    -36.93118901	     49.08574018	     66.34214294	     48.63003950	      0.00000000	      0.00000000
      5.00500000	    -17.17706524	      8.69965902	     -3.54103732	      0.36332140	      1.06704186	     -0.23236906	      0.00000000	      0.50000000	      0.00000000	      0.25000000	     34.04850561	     -9.63133956	      5.39967034	     31.57967117	      0.55116924	     -2.23082901	     -2.91424002	      0.00000000	      0.00000000	     59.75812082	     -4.39905606	     -3.84310041	    111.54093234	      1.94675652	      5.69136902	     -3.00979827	      0.00000000	      0.00000000	    -54.08811321	     -1.90324301	     -7.18693974	     78.09700477	    -26.97734354	     81.81227359	     62.05955370	     58.16669842	      0.00000000	      0.00000000	     50.31967193	    -37.05778309	     49.45551298	     66.39190740	     48.67702375	      0.00000000	      0.00000000
      5.01000000	    -17.42155490	      8.76985890	     -3.25562190	      0.36310158	      1.06617609	     -0.23223909	      0.00000000	      0.50000000	      0.00000000	      0.25000000	     33.44301055	     -9.93992192	      4.83420356	     30.66443255	      0.53519531	     -2.95392692	     -2.49311597	      0.00000000	      0.00000000	     60.90251333	     -4.20351635	     -3.51816379	    112.37856382	      1.96137595	      6.78804537	     -3.06098888	      0.00000000	      0.00000000	    -53.78972608	     -2.23260622	     -7.42589120	     77.65511567	    -27.06911925	     81.79641759	     61.90671321	     58.17206643	      0.00000000	      0.00000000	     50.64322928	    -37.33754357	     49.63110655	     66.51624379	     48.71485167	      0.00000000	      0.00000000
      5.01500000	    -17.67743972	      8.62322521	     -2.78811888	      0.36284271	      1.06546245	     -0.23212670	      0.00000000	      0.50000000	      0.00000000	      0.25000000	     32.78251663	    -10.11375490	      3.91543550	     29.76369015	      0.51947439	     -3.87236994	     -2.37364832	      0.00000000	      0.00000000	     62.08358212	     -4.00870225	     -2.83895210	    113.17506302	      1.97527748	      8.06803045	     -2.21775691	      0.00000000	      0.00000000	    -53.42057274	     -2.31579848	     -7.70011525	     76.40690528	    -26.42503648	     80.23985627	     60.80189941	     58.01004275	      0.00000000	      0.00000000	     51.66811087	    -38.51196785	     52.23840550	     67.31556655	     49.11400952	      0.00000000	      0.00000000
      5.02000000	    -18.05653102	      8.48628313	     -2.42231762	      0.36265887	      1.06478190	     -0.23226179	      0.00000000	      0.50000000	      0.00000000	      0.25000000	     32.28941381	    -10.25415071	      3.08980667	     28.87897298	      0.50403316	     -4.85376215	     -1.94871007	      0.00000000	      0.00000000	     63.34054258	     -3.83311852	     -2.31498782	    113.85678814	      1.98717583	      9.19527230	     -2.02989032	      0.00000000	      0.00000000	    -52.93431882	     -2.37751772	     -7.77837727	     75.90359190	    -26.41358182	     80.11622051	     60.56667267	     57.99726453	      0.00000000	      0.00000000	     51.85772785	    -38.68412828	     52.62209404	     67.46889565	     49.17825814	      0.00000000	      0.00000000
      5.02500000	    -18.36265909	      8.55862960	     -2.15191238	      0.36235838	      1.06459049	     -0.23212576	      0.00000000	      0.50000000	      0.00000000	      0.25000000	     31.81195140	    -10.51809867	      2.60873310	     28.09084788	      0.49027779	     -5.64929411	     -1.55132656	      0.00000000	      0.00000000	     64.40101217	     -3.59718528	     -2.09012298	    114.34215633	      1.99564710	     10.35939864	     -2.18216971	      0.00000000	      0.00000000	    -52.63937155	     -2.72436284	     -8.01812868	     75.53532324	    -26.39753949	     80.11450069	     60.42202898	     57.98834191	      0.00000000	      0.00000000	     52.26020472	    -38.89411195	     52.66977372	     67.57459140	     49.19737007	      0.00000000	      0.00000000
      5.03000000	    -18.67597593	      8.48772622	     -1.67418957	      0.36204532	      1.06461960	     -0.23213080	      0.00000000	      0.50000000	      0.00000000	      0.25000000	     31.27842398	    -10.73913915	      1.72480113	     27.27208475	      0.47598767	     -6.74495159	     -1.49463227	      0.00000000	      0.00000000	     65.48157908	     -3.25460499	     -1.54759670	    114.75457261	      2.00284512	     11.68361242	     -1.44805145	      0.00000000	      0.00000000	    -52.30819408	     -2.86377883	     -8.49728774	     74.21848775	    -25.32926782	     78.33120431	     58.78720237	     57.60038418	      0.00000000	      0.00000000	     53.28677571	    -40.10544278	     55.08831047	     68.36238564	     49.56450696	      0.00000000	      0.00000000
      5.03500000	    -19.01532730	      8.37498714	     -1.29636243	      0.36167987	      1.06472616	     -0.23218555	      0.00000000	      0.50000000	      0.00000000	      0.25000000	     30.83112689	    -10.86107425	      0.98281458	     26.52353884	      0.46292308	     -7.91130895	     -1.35913176	      0.00000000	      0.00000000	     66.56748758	     -2.94487307	     -1.07782920	    115.08806055	      2.00866559	     12.88957397	     -1.32113241	      0.00000000	      0.00000000	    -52.01099417	     -2.97210828	     -8.69112102	     73.72029461	    -25.11943939	     77.97308893	     58.39182138	     57.51576682	      0.00000000	      0.00000000	     53.72517142	    -40.40602984	     55.57534767	     68.58021953	     49.64426818	      0.00000000	      0.00000000
